<mxfile host="app.diagrams.net" modified="2021-08-18T01:38:15.774Z" agent="5.0 (Windows NT 10.0; Win64; x64) AppleWebKit/537.36 (KHTML, like Gecko) Chrome/70.0.3538.77 Safari/537.36" etag="yz3PveWlk_TUP_tpDwOm" version="14.9.7" type="github">
  <diagram id="prtHgNgQTEPvFCAcTncT" name="Page-1">
    <mxGraphModel dx="868" dy="451" grid="1" gridSize="10" guides="1" tooltips="1" connect="1" arrows="1" fold="1" page="1" pageScale="1" pageWidth="827" pageHeight="1169" math="0" shadow="0">
      <root>
        <mxCell id="0" />
        <mxCell id="1" parent="0" />
        <mxCell id="dNxyNK7c78bLwvsdeMH5-19" value="MY MORNING ROUTINE" style="swimlane;html=1;childLayout=stackLayout;resizeParent=1;resizeParentMax=0;horizontal=0;startSize=20;horizontalStack=0;" parent="1" vertex="1">
          <mxGeometry x="80" y="140" width="685" height="290" as="geometry" />
        </mxCell>
        <mxCell id="dNxyNK7c78bLwvsdeMH5-20" value="Lane 1" style="swimlane;html=1;startSize=20;horizontal=0;" parent="dNxyNK7c78bLwvsdeMH5-19" vertex="1">
          <mxGeometry x="20" width="665" height="140" as="geometry" />
        </mxCell>
        <mxCell id="dNxyNK7c78bLwvsdeMH5-23" value="wake up" style="ellipse;whiteSpace=wrap;html=1;fillColor=#0050ef;strokeColor=#001DBC;fontColor=#ffffff;" parent="dNxyNK7c78bLwvsdeMH5-20" vertex="1">
          <mxGeometry x="30" y="30" width="100" height="60" as="geometry" />
        </mxCell>
        <mxCell id="dNxyNK7c78bLwvsdeMH5-24" value="pray/devotion" style="rounded=0;whiteSpace=wrap;html=1;fontFamily=Helvetica;fontSize=12;fontColor=#ffffff;align=center;fillColor=#0050ef;strokeColor=#001DBC;" parent="dNxyNK7c78bLwvsdeMH5-20" vertex="1">
          <mxGeometry x="170" y="30" width="80" height="60" as="geometry" />
        </mxCell>
        <mxCell id="ORz1WjLT9l0tZyR24I1C-7" value="" style="endArrow=classic;html=1;" edge="1" parent="dNxyNK7c78bLwvsdeMH5-20">
          <mxGeometry width="50" height="50" relative="1" as="geometry">
            <mxPoint x="130" y="59.5" as="sourcePoint" />
            <mxPoint x="170" y="60" as="targetPoint" />
          </mxGeometry>
        </mxCell>
        <mxCell id="ORz1WjLT9l0tZyR24I1C-20" value="" style="endArrow=classic;html=1;fillColor=#0050ef;strokeColor=#001DBC;exitX=1;exitY=0.5;exitDx=0;exitDy=0;" edge="1" parent="dNxyNK7c78bLwvsdeMH5-20">
          <mxGeometry width="50" height="50" relative="1" as="geometry">
            <mxPoint x="253" y="60" as="sourcePoint" />
            <mxPoint x="299" y="60" as="targetPoint" />
          </mxGeometry>
        </mxCell>
        <mxCell id="ORz1WjLT9l0tZyR24I1C-21" value="fold beddings" style="rounded=0;whiteSpace=wrap;html=1;fillColor=#0050ef;fontColor=#ffffff;strokeColor=#001DBC;" vertex="1" parent="dNxyNK7c78bLwvsdeMH5-20">
          <mxGeometry x="302" y="30" width="88" height="60" as="geometry" />
        </mxCell>
        <mxCell id="ORz1WjLT9l0tZyR24I1C-45" value="go to the office" style="ellipse;whiteSpace=wrap;html=1;strokeColor=#001DBC;fillColor=#0050ef;fontColor=#ffffff;" vertex="1" parent="dNxyNK7c78bLwvsdeMH5-20">
          <mxGeometry x="530" y="30" width="110" height="70" as="geometry" />
        </mxCell>
        <mxCell id="ORz1WjLT9l0tZyR24I1C-8" value="" style="endArrow=classic;html=1;exitX=1;exitY=0.5;exitDx=0;exitDy=0;entryX=0.5;entryY=0;entryDx=0;entryDy=0;" edge="1" parent="dNxyNK7c78bLwvsdeMH5-19" source="ORz1WjLT9l0tZyR24I1C-21" target="dNxyNK7c78bLwvsdeMH5-26">
          <mxGeometry width="50" height="50" relative="1" as="geometry">
            <mxPoint x="232" y="110" as="sourcePoint" />
            <mxPoint x="92" y="137" as="targetPoint" />
            <Array as="points">
              <mxPoint x="470" y="60" />
              <mxPoint x="470" y="110" />
              <mxPoint x="232" y="110" />
              <mxPoint x="92" y="110" />
            </Array>
          </mxGeometry>
        </mxCell>
        <mxCell id="dNxyNK7c78bLwvsdeMH5-21" value="lane 2" style="swimlane;html=1;startSize=20;horizontal=0;" parent="dNxyNK7c78bLwvsdeMH5-19" vertex="1">
          <mxGeometry x="20" y="140" width="665" height="150" as="geometry" />
        </mxCell>
        <mxCell id="dNxyNK7c78bLwvsdeMH5-26" value="cook rice" style="rounded=0;whiteSpace=wrap;html=1;fontFamily=Helvetica;fontSize=12;fontColor=#ffffff;align=center;fillColor=#0050ef;strokeColor=#001DBC;" parent="dNxyNK7c78bLwvsdeMH5-21" vertex="1">
          <mxGeometry x="32" y="41" width="80" height="60" as="geometry" />
        </mxCell>
        <mxCell id="ORz1WjLT9l0tZyR24I1C-43" value="" style="edgeStyle=orthogonalEdgeStyle;rounded=0;orthogonalLoop=1;jettySize=auto;html=1;" edge="1" parent="dNxyNK7c78bLwvsdeMH5-21" target="ORz1WjLT9l0tZyR24I1C-39">
          <mxGeometry relative="1" as="geometry">
            <mxPoint x="234" y="67" as="sourcePoint" />
          </mxGeometry>
        </mxCell>
        <mxCell id="ORz1WjLT9l0tZyR24I1C-19" value="change clothes/prepare myself&amp;nbsp;" style="rounded=0;whiteSpace=wrap;html=1;strokeColor=#001DBC;fillColor=#0050ef;fontColor=#ffffff;" vertex="1" parent="dNxyNK7c78bLwvsdeMH5-21">
          <mxGeometry x="144" y="40" width="90" height="60" as="geometry" />
        </mxCell>
        <mxCell id="ORz1WjLT9l0tZyR24I1C-16" value="exercise" style="shape=document;whiteSpace=wrap;html=1;boundedLbl=1;strokeColor=#001DBC;fillColor=#0050ef;fontColor=#ffffff;" vertex="1" parent="dNxyNK7c78bLwvsdeMH5-21">
          <mxGeometry x="40" y="94" width="80" height="30" as="geometry" />
        </mxCell>
        <mxCell id="ORz1WjLT9l0tZyR24I1C-27" value="" style="endArrow=classic;html=1;entryX=0;entryY=0.5;entryDx=0;entryDy=0;" edge="1" parent="dNxyNK7c78bLwvsdeMH5-21">
          <mxGeometry width="50" height="50" relative="1" as="geometry">
            <mxPoint x="496" y="73" as="sourcePoint" />
            <mxPoint x="536" y="73" as="targetPoint" />
          </mxGeometry>
        </mxCell>
        <mxCell id="ORz1WjLT9l0tZyR24I1C-28" value="breakfast" style="rhombus;whiteSpace=wrap;html=1;strokeColor=#001DBC;fillColor=#0050ef;fontColor=#ffffff;" vertex="1" parent="dNxyNK7c78bLwvsdeMH5-21">
          <mxGeometry x="410" y="48" width="80" height="50" as="geometry" />
        </mxCell>
        <mxCell id="dNxyNK7c78bLwvsdeMH5-32" value="YES" style="ellipse;whiteSpace=wrap;html=1;fillColor=#0050ef;strokeColor=#001DBC;fontColor=#ffffff;" parent="dNxyNK7c78bLwvsdeMH5-21" vertex="1">
          <mxGeometry x="432.5" y="113" width="35" height="33" as="geometry" />
        </mxCell>
        <mxCell id="ORz1WjLT9l0tZyR24I1C-17" value="take a bath" style="shape=document;whiteSpace=wrap;html=1;boundedLbl=1;strokeColor=#001DBC;fillColor=#0050ef;fontColor=#ffffff;" vertex="1" parent="dNxyNK7c78bLwvsdeMH5-21">
          <mxGeometry x="32" y="112" width="80" height="34" as="geometry" />
        </mxCell>
        <mxCell id="ORz1WjLT9l0tZyR24I1C-10" value="" style="endArrow=classic;html=1;exitX=1;exitY=0.5;exitDx=0;exitDy=0;entryX=0;entryY=0.5;entryDx=0;entryDy=0;" edge="1" parent="dNxyNK7c78bLwvsdeMH5-21" source="dNxyNK7c78bLwvsdeMH5-26" target="ORz1WjLT9l0tZyR24I1C-19">
          <mxGeometry width="50" height="50" relative="1" as="geometry">
            <mxPoint x="290" y="10" as="sourcePoint" />
            <mxPoint x="140" y="30" as="targetPoint" />
          </mxGeometry>
        </mxCell>
        <mxCell id="ORz1WjLT9l0tZyR24I1C-33" value="NO" style="ellipse;whiteSpace=wrap;html=1;aspect=fixed;strokeColor=#001DBC;fillColor=#0050ef;fontColor=#ffffff;" vertex="1" parent="dNxyNK7c78bLwvsdeMH5-21">
          <mxGeometry x="435" y="4" width="30" height="30" as="geometry" />
        </mxCell>
        <mxCell id="ORz1WjLT9l0tZyR24I1C-32" value="" style="endArrow=classic;html=1;exitX=0.5;exitY=0;exitDx=0;exitDy=0;" edge="1" parent="dNxyNK7c78bLwvsdeMH5-21" source="ORz1WjLT9l0tZyR24I1C-28" target="ORz1WjLT9l0tZyR24I1C-33">
          <mxGeometry width="50" height="50" relative="1" as="geometry">
            <mxPoint x="330" y="70" as="sourcePoint" />
            <mxPoint x="310" y="30" as="targetPoint" />
          </mxGeometry>
        </mxCell>
        <mxCell id="ORz1WjLT9l0tZyR24I1C-34" value="" style="endArrow=classic;html=1;entryX=0.5;entryY=0;entryDx=0;entryDy=0;exitX=0.5;exitY=1;exitDx=0;exitDy=0;" edge="1" parent="dNxyNK7c78bLwvsdeMH5-21" source="ORz1WjLT9l0tZyR24I1C-28" target="dNxyNK7c78bLwvsdeMH5-32">
          <mxGeometry width="50" height="50" relative="1" as="geometry">
            <mxPoint x="308" y="110" as="sourcePoint" />
            <mxPoint x="380" y="20" as="targetPoint" />
          </mxGeometry>
        </mxCell>
        <mxCell id="ORz1WjLT9l0tZyR24I1C-35" value="Toothbrush" style="rounded=0;whiteSpace=wrap;html=1;fillColor=#0050ef;fontColor=#ffffff;strokeColor=#001DBC;" vertex="1" parent="dNxyNK7c78bLwvsdeMH5-21">
          <mxGeometry x="540" y="40" width="100" height="60" as="geometry" />
        </mxCell>
        <mxCell id="ORz1WjLT9l0tZyR24I1C-39" value="prepare baon" style="rounded=0;whiteSpace=wrap;html=1;strokeColor=#001DBC;fillColor=#0050ef;fontColor=#ffffff;" vertex="1" parent="dNxyNK7c78bLwvsdeMH5-21">
          <mxGeometry x="277.5" y="39" width="90" height="55" as="geometry" />
        </mxCell>
        <mxCell id="ORz1WjLT9l0tZyR24I1C-42" value="" style="endArrow=classic;html=1;" edge="1" parent="dNxyNK7c78bLwvsdeMH5-21">
          <mxGeometry width="50" height="50" relative="1" as="geometry">
            <mxPoint x="370" y="71" as="sourcePoint" />
            <mxPoint x="410" y="70.5" as="targetPoint" />
          </mxGeometry>
        </mxCell>
        <mxCell id="ORz1WjLT9l0tZyR24I1C-46" value="" style="endArrow=classic;html=1;entryX=0.5;entryY=1;entryDx=0;entryDy=0;" edge="1" parent="dNxyNK7c78bLwvsdeMH5-19">
          <mxGeometry width="50" height="50" relative="1" as="geometry">
            <mxPoint x="608" y="180" as="sourcePoint" />
            <mxPoint x="608" y="100" as="targetPoint" />
          </mxGeometry>
        </mxCell>
      </root>
    </mxGraphModel>
  </diagram>
</mxfile>
